<?xml version="1.0" standalone="no"?>
<!DOCTYPE svg PUBLIC "-//W3C//DTD SVG 20010904//EN"
 "http://www.w3.org/TR/2001/REC-SVG-20010904/DTD/svg10.dtd">
<svg version="1.0" xmlns="http://www.w3.org/2000/svg"
 width="96.000000pt" height="96.000000pt" viewBox="0 0 96.000000 96.000000"
 preserveAspectRatio="xMidYMid meet">
<metadata>
Created by potrace 1.14, written by Peter Selinger 2001-2017
</metadata>
<g transform="translate(0.000000,96.000000) scale(0.100000,-0.100000)"
fill="#000000" stroke="none">
<path d="M0 480 l0 -480 480 0 480 0 0 480 0 480 -480 0 -480 0 0 -480z m518
198 c19 -19 14 -29 -9 -16 -18 11 -23 10 -45 -15 -29 -34 -35 -114 -8 -124 12
-4 13 -8 3 -14 -13 -7 23 -49 66 -76 18 -11 17 -12 -10 -7 -58 11 -111 102
-98 169 7 39 49 95 72 95 9 0 22 -5 29 -12z m101 -116 c8 -15 2 -14 -42 7 -37
18 -48 28 -37 32 19 8 66 -15 79 -39z m-250 -25 c-52 -48 -58 -75 -25 -104 15
-13 22 -23 16 -23 -6 0 -22 11 -36 25 -36 36 -21 78 41 117 44 26 45 22 4 -15z
m51 -162 c24 -13 24 -14 4 -15 -12 0 -27 7 -34 15 -16 19 -3 19 30 0z m-123
-117 c-3 -7 -5 -2 -5 12 0 14 2 19 5 13 2 -7 2 -19 0 -25z m38 3 c-6 -5 -25
10 -25 20 0 5 6 4 14 -3 8 -7 12 -15 11 -17z m202 7 c-3 -8 -6 -5 -6 6 -1 11
2 17 5 13 3 -3 4 -12 1 -19z m67 -4 c3 -8 2 -12 -4 -9 -6 3 -10 10 -10 16 0
14 7 11 14 -7z"/>
</g>
</svg>
